<svg width="948" height="784" viewBox="0 0 948 784" fill="none" xmlns="http://www.w3.org/2000/svg">
<path d="M1.12856 195.5C-8.31659 118.05 44.6286 0.5 44.6286 0.5H947.629V782.5C947.629 782.5 919.129 790 808.129 769C697.129 748 565.129 597 447.629 567L446.675 566.757C328.533 536.595 33.541 461.282 1.12856 195.5Z" fill="#EBEFF2"/>
<path fill-rule="evenodd" clip-rule="evenodd" d="M947.629 722.343V0.5H272.481C349.921 44.8279 453.302 116.338 493.5 200C518.426 251.876 515.422 308.497 512.421 365.05C509.376 422.448 506.334 479.775 532.5 532C603.242 673.196 841.75 711.976 947.629 722.343Z" fill="#DFE5E9"/>
</svg>
